<svg width="64" height="64" viewBox="0 0 64 64" fill="none" xmlns="http://www.w3.org/2000/svg">
<path d="M59.0902 45.16L38.3302 26.61L43.2602 21.69L44.4102 22.84C44.5031 22.9337 44.6137 23.0081 44.7356 23.0589C44.8575 23.1096 44.9882 23.1358 45.1202 23.1358C45.2522 23.1358 45.3829 23.1096 45.5048 23.0589C45.6266 23.0081 45.7372 22.9337 45.8302 22.84L47.4102 21.26C47.7912 20.8792 48.0934 20.4271 48.2996 19.9295C48.5058 19.432 48.6119 18.8986 48.6119 18.36C48.6119 17.8214 48.5058 17.288 48.2996 16.7904C48.0934 16.2928 47.7912 15.8407 47.4102 15.46L36.2202 4.26998C35.4499 3.503 34.4072 3.07239 33.3202 3.07239C32.2332 3.07239 31.1904 3.503 30.4202 4.26998L28.8402 5.85998C28.6539 6.04735 28.5494 6.3008 28.5494 6.56498C28.5494 6.82917 28.6539 7.08262 28.8402 7.26998L30.5102 8.93998L14.7902 24.66L13.1202 23C12.9328 22.8137 12.6794 22.7092 12.4152 22.7092C12.151 22.7092 11.8975 22.8137 11.7102 23L10.1202 24.58C9.7392 24.9607 9.43698 25.4128 9.23078 25.9104C9.02459 26.408 8.91846 26.9414 8.91846 27.48C8.91846 28.0186 9.02459 28.552 9.23078 29.0495C9.43698 29.5471 9.7392 29.9992 10.1202 30.38L21.3102 41.56C21.6909 41.941 22.143 42.2432 22.6406 42.4494C23.1382 42.6556 23.6716 42.7617 24.2102 42.7617C24.7488 42.7617 25.2822 42.6556 25.7797 42.4494C26.2773 42.2432 26.7294 41.941 27.1102 41.56L28.6902 40C28.7839 39.907 28.8583 39.7964 28.9091 39.6746C28.9598 39.5527 28.986 39.422 28.986 39.29C28.986 39.158 28.9598 39.0273 28.9091 38.9054C28.8583 38.7835 28.7839 38.6729 28.6902 38.58L27.5402 37.43L32.4602 32.5L51.0002 53.24C51.5205 53.8175 52.1527 54.2834 52.8585 54.6092C53.5642 54.9351 54.3288 55.1142 55.1059 55.1357C55.883 55.1572 56.6563 55.0207 57.379 54.7343C58.1017 54.448 58.7587 54.0179 59.3102 53.47V53.47C59.8587 52.9192 60.2896 52.2627 60.5768 51.5404C60.8639 50.818 61.0014 50.0449 60.9808 49.2678C60.9603 48.4908 60.7821 47.726 60.4571 47.0199C60.1321 46.3138 59.6671 45.681 59.0902 45.16V45.16ZM31.8402 5.68998C32.2416 5.29904 32.7798 5.08028 33.3402 5.08028C33.9005 5.08028 34.4387 5.29904 34.8402 5.68998L46.0002 16.88C46.1985 17.0762 46.356 17.3098 46.4634 17.5673C46.5709 17.8248 46.6262 18.101 46.6262 18.38C46.6262 18.659 46.5709 18.9352 46.4634 19.1927C46.356 19.4502 46.1985 19.6838 46.0002 19.88L45.1202 20.76L31.0002 6.55998L31.8402 5.68998ZM25.6902 40.15C25.494 40.3483 25.2604 40.5058 25.0029 40.6132C24.7454 40.7207 24.4692 40.776 24.1902 40.776C23.9112 40.776 23.635 40.7207 23.3775 40.6132C23.12 40.5058 22.8864 40.3483 22.6902 40.15L11.5402 29C11.3437 28.8048 11.1877 28.5726 11.0813 28.3169C10.9749 28.0612 10.9202 27.787 10.9202 27.51C10.9158 27.2294 10.9685 26.9509 11.0751 26.6913C11.1816 26.4317 11.3399 26.1965 11.5402 26L12.4102 25.12L26.5702 39.27L25.6902 40.15ZM16.2002 26.07L31.9202 10.35L41.8402 20.27L26.1202 36L16.2002 26.07ZM57.9102 52.07C57.5502 52.4249 57.1222 52.7035 56.6519 52.8888C56.1815 53.0741 55.6785 53.1624 55.1732 53.1484C54.6679 53.1344 54.1706 53.0184 53.7112 52.8073C53.2519 52.5962 52.8399 52.2943 52.5002 51.92L33.8802 31.07L36.8802 28.07L57.7602 46.65C58.1345 46.9897 58.4364 47.4017 58.6475 47.861C58.8586 48.3204 58.9746 48.8177 58.9886 49.323C59.0026 49.8284 58.9143 50.3313 58.729 50.8017C58.5437 51.272 58.2651 51.7 57.9102 52.06V52.07Z" fill="#334a23" id="id_103"></path>
<path d="M37.72 59H35.86V53.9C35.86 53.6348 35.7546 53.3805 35.5671 53.1929C35.3796 53.0054 35.1252 52.9 34.86 52.9H33.34V50.9C33.34 50.6348 33.2346 50.3805 33.0471 50.1929C32.8596 50.0054 32.6052 49.9 32.34 49.9H9.34C9.07478 49.9 8.82043 50.0054 8.63289 50.1929C8.44536 50.3805 8.34 50.6348 8.34 50.9V52.9H6.86C6.59478 52.9 6.34043 53.0054 6.15289 53.1929C5.96536 53.3805 5.86 53.6348 5.86 53.9V59H4C3.73478 59 3.48043 59.1054 3.29289 59.2929C3.10536 59.4805 3 59.7348 3 60C3 60.2652 3.10536 60.5196 3.29289 60.7071C3.48043 60.8947 3.73478 61 4 61H37.72C37.9852 61 38.2396 60.8947 38.4271 60.7071C38.6146 60.5196 38.72 60.2652 38.72 60C38.72 59.7348 38.6146 59.4805 38.4271 59.2929C38.2396 59.1054 37.9852 59 37.72 59ZM10.38 51.85H31.38V52.85H10.38V51.85ZM7.86 59V54.9H33.86V59H7.86Z" fill="#314721" id="id_104"></path>
</svg>